# xmcd
#
# Track frame offsets:
#	150
#	10086
#	26837
#	35976
#	59329
#	72396
#	89721
#	100320
#	115985
#	128793
#	146424
#	156161
#
# Disc length: 2371 seconds
#
# Revision: 0
# Processed by: cddbd v1.4PL0 Copyright (c) Steve Scherf et al.
# Submitted via: dBpowerAMP V4.0
#
DISCID=ae09410c
DTITLE=Middle Cross - Ordinary Day
DYEAR=2000
DGENRE=Gospel
TTITLE0=I'm Ready
TTITLE1=My Heavenly Home
TTITLE2=I Know My God Can Do It
TTITLE3=Medley
TTITLE4=One of These Days
TTITLE5=My Redeemer Lives
TTITLE6=I'm Glad I'm Servin' A God
TTITLE7=Ordinary Day
TTITLE8=When I Lay My Burdens Down
TTITLE9=I Will Serve Thee
TTITLE10=I Love To Tell
TTITLE11=You're Not Alone
EXTD=
EXTT0=
EXTT1=
EXTT2=
EXTT3=
EXTT4=
EXTT5=
EXTT6=
EXTT7=
EXTT8=
EXTT9=
EXTT10=
EXTT11=
PLAYORDER=
